<svg width="24" height="25" viewBox="0 0 24 25" fill="none" xmlns="http://www.w3.org/2000/svg">
<path d="M19 19.334V8.33398H5V19.334H19ZM16 1.33398H18V3.33398H19C19.5304 3.33398 20.0391 3.5447 20.4142 3.91977C20.7893 4.29484 21 4.80355 21 5.33398V19.334C21 19.8644 20.7893 20.3731 20.4142 20.7482C20.0391 21.1233 19.5304 21.334 19 21.334H5C3.89 21.334 3 20.434 3 19.334V5.33398C3 4.22398 3.89 3.33398 5 3.33398H6V1.33398H8V3.33398H16V1.33398ZM7 10.334H9V12.334H7V10.334ZM15 10.334H17V12.334H15V10.334ZM11 14.334H13V16.334H11V14.334ZM15 14.334H17V16.334H15V14.334Z" fill="black"/>
</svg>
