<svg width="18" height="18" viewBox="0 0 18 18" fill="none" xmlns="http://www.w3.org/2000/svg">
<path d="M4.75 7.125C4.75 7.88439 4.13439 8.5 3.375 8.5C2.61561 8.5 2 7.88439 2 7.125C2 6.36561 2.61561 5.75 3.375 5.75C4.13439 5.75 4.75 6.36561 4.75 7.125Z" fill="black" stroke="black"/>
<path d="M8.125 4.125C8.125 4.88439 7.50939 5.5 6.75 5.5C5.99061 5.5 5.375 4.88439 5.375 4.125C5.375 3.36561 5.99061 2.75 6.75 2.75C7.50939 2.75 8.125 3.36561 8.125 4.125Z" fill="black" stroke="black"/>
<path d="M12.625 4.125C12.625 4.88439 12.0094 5.5 11.25 5.5C10.4906 5.5 9.875 4.88439 9.875 4.125C9.875 3.36561 10.4906 2.75 11.25 2.75C12.0094 2.75 12.625 3.36561 12.625 4.125Z" fill="black" stroke="black"/>
<path d="M16 7.125C16 7.88439 15.3844 8.5 14.625 8.5C13.8656 8.5 13.25 7.88439 13.25 7.125C13.25 6.36561 13.8656 5.75 14.625 5.75C15.3844 5.75 16 6.36561 16 7.125Z" fill="black" stroke="black"/>
<path d="M9.43732 8.52829L9.43806 8.52892C10.8003 9.68291 11.8891 10.6078 12.6432 11.4697C13.3932 12.3269 13.75 13.0538 13.75 13.8025C13.75 15.0098 12.7366 16 11.3625 16C10.5879 16 9.84508 15.6606 9.3682 15.1416L9 14.7408L8.6318 15.1416C8.15492 15.6606 7.41205 16 6.6375 16C5.26344 16 4.25 15.0098 4.25 13.8025C4.25 13.0538 4.60682 12.3269 5.35677 11.4697C6.11089 10.6078 7.19973 9.68291 8.56194 8.52892L8.56268 8.52829L9 8.15637L9.43732 8.52829Z" fill="black" stroke="black"/>
</svg>
