<svg width="25" height="25" viewBox="0 0 25 25" fill="none" xmlns="http://www.w3.org/2000/svg">
<path d="M22.2629 11.2504H13.0929V13.9804H19.6029C19.2729 17.7904 16.1029 19.4204 13.1029 19.4204C9.27287 19.4204 5.91287 16.4004 5.91287 12.1504C5.91287 8.05039 9.11287 4.88039 13.1129 4.88039C16.2029 4.88039 18.0129 6.85039 18.0129 6.85039L19.9129 4.87039C19.9129 4.87039 17.4729 2.15039 13.0129 2.15039C7.33287 2.15039 2.94287 6.95039 2.94287 12.1504C2.94287 17.2004 7.07287 22.1504 13.1629 22.1504C18.5129 22.1504 22.4129 18.4804 22.4129 13.0604C22.4129 11.9104 22.2629 11.2504 22.2629 11.2504Z" fill="black"/>
</svg>
