<svg width="20" height="20" viewBox="0 0 20 20" fill="none" xmlns="http://www.w3.org/2000/svg">
<path d="M6.5 1.66602H13.5C16.1667 1.66602 18.3333 3.83268 18.3333 6.49935V13.4993C18.3333 14.7812 17.8241 16.0106 16.9177 16.917C16.0113 17.8235 14.7819 18.3327 13.5 18.3327H6.5C3.83334 18.3327 1.66667 16.166 1.66667 13.4993V6.49935C1.66667 5.21747 2.1759 3.98809 3.08232 3.08167C3.98875 2.17524 5.21812 1.66602 6.5 1.66602ZM6.33334 3.33268C5.53769 3.33268 4.77463 3.64875 4.21202 4.21136C3.64941 4.77397 3.33334 5.53703 3.33334 6.33268V13.666C3.33334 15.3243 4.675 16.666 6.33334 16.666H13.6667C14.4623 16.666 15.2254 16.3499 15.788 15.7873C16.3506 15.2247 16.6667 14.4617 16.6667 13.666V6.33268C16.6667 4.67435 15.325 3.33268 13.6667 3.33268H6.33334ZM14.375 4.58268C14.6513 4.58268 14.9162 4.69243 15.1116 4.88778C15.3069 5.08313 15.4167 5.34808 15.4167 5.62435C15.4167 5.90062 15.3069 6.16557 15.1116 6.36092C14.9162 6.55627 14.6513 6.66601 14.375 6.66601C14.0987 6.66601 13.8338 6.55627 13.6384 6.36092C13.4431 6.16557 13.3333 5.90062 13.3333 5.62435C13.3333 5.34808 13.4431 5.08313 13.6384 4.88778C13.8338 4.69243 14.0987 4.58268 14.375 4.58268ZM10 5.83268C11.1051 5.83268 12.1649 6.27167 12.9463 7.05307C13.7277 7.83447 14.1667 8.89428 14.1667 9.99935C14.1667 11.1044 13.7277 12.1642 12.9463 12.9456C12.1649 13.727 11.1051 14.166 10 14.166C8.89494 14.166 7.83513 13.727 7.05373 12.9456C6.27232 12.1642 5.83334 11.1044 5.83334 9.99935C5.83334 8.89428 6.27232 7.83447 7.05373 7.05307C7.83513 6.27167 8.89494 5.83268 10 5.83268ZM10 7.49935C9.33696 7.49935 8.70108 7.76274 8.23224 8.23158C7.7634 8.70042 7.5 9.33631 7.5 9.99935C7.5 10.6624 7.7634 11.2983 8.23224 11.7671C8.70108 12.236 9.33696 12.4993 10 12.4993C10.663 12.4993 11.2989 12.236 11.7678 11.7671C12.2366 11.2983 12.5 10.6624 12.5 9.99935C12.5 9.33631 12.2366 8.70042 11.7678 8.23158C11.2989 7.76274 10.663 7.49935 10 7.49935Z" fill="#787878"/>
</svg>
