<svg width="24" height="25" viewBox="0 0 24 25" fill="none" xmlns="http://www.w3.org/2000/svg">
<path d="M12 6.83398C12.663 6.83398 13.2989 7.09738 13.7678 7.56622C14.2366 8.03506 14.5 8.67094 14.5 9.33398C14.5 9.66229 14.4353 9.98738 14.3097 10.2907C14.1841 10.594 13.9999 10.8696 13.7678 11.1018C13.5356 11.3339 13.26 11.518 12.9567 11.6437C12.6534 11.7693 12.3283 11.834 12 11.834C11.337 11.834 10.7011 11.5706 10.2322 11.1018C9.76339 10.6329 9.5 9.99703 9.5 9.33398C9.5 8.67094 9.76339 8.03506 10.2322 7.56622C10.7011 7.09738 11.337 6.83398 12 6.83398ZM12 2.33398C13.8565 2.33398 15.637 3.07148 16.9497 4.38424C18.2625 5.69699 19 7.47747 19 9.33398C19 14.584 12 22.334 12 22.334C12 22.334 5 14.584 5 9.33398C5 7.47747 5.7375 5.69699 7.05025 4.38424C8.36301 3.07148 10.1435 2.33398 12 2.33398ZM12 4.33398C10.6739 4.33398 9.40215 4.86077 8.46447 5.79845C7.52678 6.73613 7 8.0079 7 9.33398C7 10.334 7 12.334 12 19.044C17 12.334 17 10.334 17 9.33398C17 8.0079 16.4732 6.73613 15.5355 5.79845C14.5979 4.86077 13.3261 4.33398 12 4.33398Z" fill="black"/>
</svg>
