<svg width="38" height="35" viewBox="0 0 38 35" fill="none" xmlns="http://www.w3.org/2000/svg">
<g clip-path="url(#clip0_1818_5260)">
<path d="M35.9301 17.0996C32.4701 19.2396 28.5401 18.0996 26.3901 14.6396" stroke="#231F20" stroke-width="2" stroke-linecap="round" stroke-linejoin="round"/>
<path d="M27.5299 9.19043H35.6099C36.2599 9.19043 36.7899 9.72043 36.7899 10.3704V13.6604C36.7899 17.7304 33.4899 21.0304 29.4199 21.0304H23.9799L19.4799 33.6904H3.91992V21.6104" stroke="#231F20" stroke-width="2" stroke-linecap="round" stroke-linejoin="round"/>
<path d="M11.64 8.88V16.77C11.64 19.43 9.69 21.81 7.04 22.07C4 22.36 1 19.98 1 16.99V8.36C1 4.3 4.3 1 8.37 1H20.39" stroke="#231F20" stroke-width="2" stroke-miterlimit="10" stroke-linecap="round"/>
<path d="M27.0701 11.85C28.2901 8.24 27.0701 4.07 23.7901 2.14C22.5601 1.42 21.1201 1 19.5801 1C18.0401 1 16.6101 1.41 15.3701 2.14C12.0901 4.06 10.8701 8.24 12.0901 11.85L19.4101 33.58C19.4601 33.74 19.6901 33.74 19.7401 33.58L27.0601 11.85H27.0701Z" stroke="#231F20" stroke-width="2" stroke-miterlimit="10"/>
<path d="M19.5902 11.5104C21.3464 11.5104 22.7702 10.0867 22.7702 8.33039C22.7702 6.57412 21.3464 5.15039 19.5902 5.15039C17.8339 5.15039 16.4102 6.57412 16.4102 8.33039C16.4102 10.0867 17.8339 11.5104 19.5902 11.5104Z" fill="#231F20"/>
</g>
<defs>
<clipPath id="clip0_1818_5260">
<rect width="37.79" height="34.69" fill="white"/>
</clipPath>
</defs>
</svg>
