<svg width="18" height="18" viewBox="0 0 18 18" fill="none" xmlns="http://www.w3.org/2000/svg">
<path d="M9 0.75L6 3.75H8.25V10.5H9.75V3.75H12M13.5 17.25H4.5C3.6675 17.25 3 16.575 3 15.75V6.75C3 6.35218 3.15804 5.97064 3.43934 5.68934C3.72064 5.40804 4.10218 5.25 4.5 5.25H6.75V6.75H4.5V15.75H13.5V6.75H11.25V5.25H13.5C13.8978 5.25 14.2794 5.40804 14.5607 5.68934C14.842 5.97064 15 6.35218 15 6.75V15.75C15 16.1478 14.842 16.5294 14.5607 16.8107C14.2794 17.092 13.8978 17.25 13.5 17.25Z" fill="black"/>
</svg>
