<svg width="24" height="25" viewBox="0 0 24 25" fill="none" xmlns="http://www.w3.org/2000/svg">
<path d="M12 21.834C10.65 20.984 8.2 20.334 6.5 20.334C4.85 20.334 3.15 20.634 1.75 21.384C1.65 21.434 1.6 21.434 1.5 21.434C1.25 21.434 1 21.184 1 20.934V6.33398C1.6 5.88398 2.25 5.58398 3 5.33398C4.11 4.98398 5.33 4.83398 6.5 4.83398C8.45 4.83398 10.55 5.23398 12 6.33398C13.45 5.23398 15.55 4.83398 17.5 4.83398C18.67 4.83398 19.89 4.98398 21 5.33398C21.75 5.58398 22.4 5.88398 23 6.33398V20.934C23 21.184 22.75 21.434 22.5 21.434C22.4 21.434 22.35 21.434 22.25 21.384C20.85 20.634 19.15 20.334 17.5 20.334C15.8 20.334 13.35 20.984 12 21.834ZM11 7.83398C9.64 7.23398 7.84 6.83398 6.5 6.83398C5.3 6.83398 4.1 6.98398 3 7.33398V18.834C4.1 18.484 5.3 18.334 6.5 18.334C7.84 18.334 9.64 18.734 11 19.334V7.83398ZM13 19.334C14.36 18.734 16.16 18.334 17.5 18.334C18.7 18.334 19.9 18.484 21 18.834V7.33398C19.9 6.98398 18.7 6.83398 17.5 6.83398C16.16 6.83398 14.36 7.23398 13 7.83398V19.334ZM14 16.684C14.96 16.334 16.12 16.164 17.5 16.164C18.54 16.164 19.38 16.244 20 16.404V14.904C19.13 14.744 18.29 14.664 17.5 14.664C16.16 14.664 15 14.834 14 15.094V16.684ZM14 14.024C14.96 13.674 16.12 13.494 17.5 13.494C18.54 13.494 19.38 13.574 20 13.734V12.234C19.13 12.074 18.29 12.004 17.5 12.004C16.22 12.004 15.05 12.154 14 12.454V14.024ZM14 11.334C14.96 11.004 16.12 10.834 17.5 10.834C18.41 10.834 19.26 10.924 20 11.114V9.56398C19.13 9.41398 18.29 9.33398 17.5 9.33398C16.18 9.33398 15 9.48398 14 9.79398V11.334Z" fill="black"/>
</svg>
