<svg width="24" height="25" viewBox="0 0 24 25" fill="none" xmlns="http://www.w3.org/2000/svg">
<path d="M9.568 3.33398H5.25C4.65326 3.33398 4.08097 3.57104 3.65901 3.99299C3.23705 4.41495 3 4.98725 3 5.58398V9.90198C3 10.499 3.237 11.072 3.659 11.493L13.24 21.074C13.939 21.773 15.02 21.946 15.847 21.404C17.9286 20.0406 19.7066 18.2626 21.07 16.181C21.612 15.354 21.439 14.273 20.74 13.574L11.16 3.99398C10.951 3.78475 10.7029 3.61877 10.4297 3.50552C10.1565 3.39227 9.86371 3.33398 9.568 3.33398Z" stroke="black" stroke-width="2" stroke-linecap="round" stroke-linejoin="round"/>
<path d="M6 6.33398H6.008V6.34198H6V6.33398Z" stroke="black" stroke-width="2.5" stroke-linecap="round" stroke-linejoin="round"/>
</svg>
