<svg width="24" height="25" viewBox="0 0 24 25" fill="none" xmlns="http://www.w3.org/2000/svg">
<path d="M12 20.334C14.1217 20.334 16.1566 19.4911 17.6569 17.9908C19.1571 16.4905 20 14.4557 20 12.334C20 10.2123 19.1571 8.17742 17.6569 6.67713C16.1566 5.17684 14.1217 4.33398 12 4.33398C9.87827 4.33398 7.84344 5.17684 6.34315 6.67713C4.84285 8.17742 4 10.2123 4 12.334C4 14.4557 4.84285 16.4905 6.34315 17.9908C7.84344 19.4911 9.87827 20.334 12 20.334ZM12 2.33398C13.3132 2.33398 14.6136 2.59264 15.8268 3.09519C17.0401 3.59774 18.1425 4.33433 19.0711 5.26292C19.9997 6.1915 20.7362 7.29389 21.2388 8.50715C21.7413 9.72041 22 11.0208 22 12.334C22 14.9861 20.9464 17.5297 19.0711 19.4051C17.1957 21.2804 14.6522 22.334 12 22.334C6.47 22.334 2 17.834 2 12.334C2 9.68182 3.05357 7.13828 4.92893 5.26292C6.8043 3.38755 9.34784 2.33398 12 2.33398ZM12.5 7.33398V12.584L17 15.254L16.25 16.484L11 13.334V7.33398H12.5Z" fill="black"/>
</svg>
