<svg width="24" height="24" viewBox="0 0 24 24" fill="none" xmlns="http://www.w3.org/2000/svg">
<g clip-path="url(#clip0_747_154)">
<path d="M6.5 9.5C6.5 10.6046 5.60457 11.5 4.5 11.5C3.39543 11.5 2.5 10.6046 2.5 9.5C2.5 8.39543 3.39543 7.5 4.5 7.5C5.60457 7.5 6.5 8.39543 6.5 9.5Z" fill="#787878" stroke="white"/>
<path d="M11 5.5C11 6.60457 10.1046 7.5 9 7.5C7.89543 7.5 7 6.60457 7 5.5C7 4.39543 7.89543 3.5 9 3.5C10.1046 3.5 11 4.39543 11 5.5Z" fill="#787878" stroke="white"/>
<path d="M17 5.5C17 6.60457 16.1046 7.5 15 7.5C13.8954 7.5 13 6.60457 13 5.5C13 4.39543 13.8954 3.5 15 3.5C16.1046 3.5 17 4.39543 17 5.5Z" fill="#787878" stroke="white"/>
<path d="M21.5 9.5C21.5 10.6046 20.6046 11.5 19.5 11.5C18.3954 11.5 17.5 10.6046 17.5 9.5C17.5 8.39543 18.3954 7.5 19.5 7.5C20.6046 7.5 21.5 8.39543 21.5 9.5Z" fill="#787878" stroke="white"/>
<path d="M12.6911 11.2441L12.6918 11.2447C14.5046 12.7805 15.9675 14.0225 16.9831 15.1832C17.9944 16.3391 18.5 17.3464 18.5 18.4033C18.5 20.1158 17.0631 21.5 15.15 21.5C14.0709 21.5 13.0358 21.0282 12.3682 20.3015L12 19.9007L11.6318 20.3015C10.9642 21.0282 9.92905 21.5 8.85 21.5C6.93694 21.5 5.5 20.1158 5.5 18.4033C5.5 17.3464 6.00557 16.3391 7.01693 15.1832C8.03245 14.0225 9.49535 12.7805 11.3082 11.2447L11.3089 11.2441L12 10.6564L12.6911 11.2441Z" fill="#787878" stroke="white"/>
</g>
<defs>
<clipPath id="clip0_747_154">
<rect width="24" height="24" fill="white"/>
</clipPath>
</defs>
</svg>
