<svg width="26" height="24" viewBox="0 0 26 24" fill="none" xmlns="http://www.w3.org/2000/svg">
<path d="M13 16.375C13.431 16.375 13.8443 16.5462 14.149 16.851C14.4538 17.1557 14.625 17.569 14.625 18C14.625 18.431 14.4538 18.8443 14.149 19.149C13.8443 19.4538 13.431 19.625 13 19.625C12.569 19.625 12.1557 19.4538 11.851 19.149C11.5462 18.8443 11.375 18.431 11.375 18C11.375 17.569 11.5462 17.1557 11.851 16.851C12.1557 16.5462 12.569 16.375 13 16.375ZM13 10.375C13.431 10.375 13.8443 10.5462 14.149 10.851C14.4538 11.1557 14.625 11.569 14.625 12C14.625 12.431 14.4538 12.8443 14.149 13.149C13.8443 13.4538 13.431 13.625 13 13.625C12.569 13.625 12.1557 13.4538 11.851 13.149C11.5462 12.8443 11.375 12.431 11.375 12C11.375 11.569 11.5462 11.1557 11.851 10.851C12.1557 10.5462 12.569 10.375 13 10.375ZM13 4.375C13.431 4.375 13.8443 4.5462 14.149 4.85095C14.4538 5.1557 14.625 5.56902 14.625 6C14.625 6.43098 14.4538 6.8443 14.149 7.14905C13.8443 7.4538 13.431 7.625 13 7.625C12.569 7.625 12.1557 7.4538 11.851 7.14905C11.5462 6.8443 11.375 6.43098 11.375 6C11.375 5.56902 11.5462 5.1557 11.851 4.85095C12.1557 4.5462 12.569 4.375 13 4.375Z" fill="black" stroke="white" stroke-width="0.75"/>
</svg>
