<svg width="24" height="24" viewBox="0 0 24 24" fill="none" xmlns="http://www.w3.org/2000/svg">
<path d="M10.75 9.5H20.5M10.75 9.5C10.75 9.89782 10.592 10.2794 10.3107 10.5607C10.0294 10.842 9.64782 11 9.25 11C8.85218 11 8.47064 10.842 8.18934 10.5607C7.90804 10.2794 7.75 9.89782 7.75 9.5M10.75 9.5C10.75 9.10218 10.592 8.72064 10.3107 8.43934C10.0294 8.15804 9.64782 8 9.25 8C8.85218 8 8.47064 8.15804 8.18934 8.43934C7.90804 8.72064 7.75 9.10218 7.75 9.5M7.75 9.5H4M16.75 15.5H20.5M16.75 15.5C16.75 15.8978 16.592 16.2794 16.3107 16.5607C16.0294 16.842 15.6478 17 15.25 17C14.8522 17 14.4706 16.842 14.1893 16.5607C13.908 16.2794 13.75 15.8978 13.75 15.5M16.75 15.5C16.75 15.1022 16.592 14.7206 16.3107 14.4393C16.0294 14.158 15.6478 14 15.25 14C14.8522 14 14.4706 14.158 14.1893 14.4393C13.908 14.7206 13.75 15.1022 13.75 15.5M13.75 15.5H4" stroke="black" stroke-width="1.5" stroke-linecap="round" stroke-linejoin="round"/>
</svg>
