<svg width="24" height="24" viewBox="0 0 24 24" fill="none" xmlns="http://www.w3.org/2000/svg">
<path d="M1.39014 18.3606L3.16014 16.6006L4.58014 18.0006L5.64014 16.9506L4.22014 15.5406L5.64014 14.1206L8.11014 16.6006L9.17014 15.5406L6.70014 13.0606L8.11014 11.6506L9.53014 13.0606L10.5901 12.0006L9.17014 10.5906L10.5901 9.17063L13.0601 11.6506L14.1201 10.5906L11.6501 8.11062L13.0601 6.70062L14.4701 8.11062L15.5401 7.05063L14.1201 5.64062L15.5401 4.22062L18.0001 6.70062L19.0701 5.64062L16.6001 3.16063L18.3601 1.39062L22.6101 5.64062L5.64014 22.6106L1.39014 18.3606Z" fill="#6B747B"/>
</svg>
